<?xml version="1.0" encoding="UTF-8" standalone="no"?>
<!DOCTYPE svg PUBLIC "-//W3C//DTD SVG 1.1//EN" "http://www.w3.org/Graphics/SVG/1.1/DTD/svg11.dtd">
<svg version="1.1" xmlns="http://www.w3.org/2000/svg" xmlns:xlink="http://www.w3.org/1999/xlink" preserveAspectRatio="xMidYMid meet" viewBox="-0.9999999999999982 -1.0001872342273614 209.92113025257294 904.0001872342274" width="205.92" height="900"><defs><path d="M45.92 0C45.92 0 45.92 0 45.92 0C45.92 540 45.92 840 45.92 900C45.92 900 45.92 900 45.92 900C141.92 900 195.25 900 205.92 900C205.92 900 205.92 900 205.92 900C205.92 360 205.92 60 205.92 0C205.92 0 205.92 0 205.92 0C109.92 0 56.59 0 45.92 0Z" id="bfmjVIQ0r"></path><path d="M159.27 91.87C161.13 84.53 160.61 76.79 157.78 69.77C165.04 58.45 165.23 43.98 158.25 32.49C158.25 32.49 158.25 32.48 158.25 32.48C151.44 20.9 138.64 14.2 125.24 15.21C116.71 4.8 102.99 0.16 89.89 3.24C89.89 3.24 89.89 3.24 89.89 3.24C76.75 6.14 66.42 16.27 63.25 29.34C44.98 36.61 36.06 57.32 43.33 75.6C46.14 82.64 51.11 88.6 57.54 92.62C58.81 112.26 75.77 127.15 95.41 125.87C102.97 125.38 110.18 122.49 115.99 117.62C135.05 122.46 154.43 110.93 159.27 91.87Z" id="a1sbkbzzkR"></path><path d="M55.29 93.98C37.87 82.31 33.21 58.74 44.87 41.32C48.91 35.27 54.61 30.52 61.28 27.62C67 7.45 87.99 -4.27 108.16 1.45C115.15 3.43 121.41 7.37 126.23 12.8C147.18 12.01 164.81 28.36 165.6 49.32C165.88 56.57 164.07 63.75 160.39 70C167.62 89.67 157.54 111.49 137.86 118.72C131.05 121.23 123.66 121.73 116.57 120.16C105.66 128.78 90.91 130.73 78.15 125.23C65.35 119.82 56.57 107.81 55.29 93.98ZM152.71 79.21C149.73 85.94 144.45 91.38 137.81 94.55C135.51 101.73 130.65 107.83 124.15 111.67C121.5 113.23 118.63 114.39 115.64 115.09C115.96 115.18 116.26 115.29 116.58 115.37C134.42 119.87 152.53 109.06 157.04 91.22C158.4 85.84 158.39 80.2 157.02 74.83C155.72 76.41 154.28 77.88 152.71 79.21ZM77.12 62.39C76.73 66.61 77.35 70.86 78.91 74.79C87.54 60.85 104.81 49.96 129.87 57.69C126.86 46.91 117.51 39.11 106.36 38.08C91.58 36.72 78.49 47.6 77.12 62.39ZM137.12 51.47C138.01 48.85 138.32 46.07 138.05 43.32C137.37 36.64 134.17 30.47 129.11 26.07C125.06 22.55 120.01 20.39 114.67 19.88C109.54 19.4 104.38 20.42 99.83 22.83C101.4 23.54 102.89 24.42 104.27 25.46C107.14 27.61 109.37 30.49 110.73 33.81C110.74 33.84 110.81 34.05 110.82 34.07C122.16 36.62 131.2 45.17 134.36 56.36C135.57 54.91 136.51 53.26 137.12 51.47ZM112.94 59.74C117.24 67.88 116.16 80.73 110.3 91.07C123.3 87.98 132.03 75.78 130.75 62.47C130.34 62.58 129.92 62.58 129.51 62.46C124.18 60.62 118.57 59.7 112.94 59.74ZM96.97 63.79C98.46 69.52 104.97 77.47 110.24 77.58C111.52 70.78 110.75 64.16 107.7 60.19C103.94 60.78 100.31 62 96.97 63.79ZM104.26 91.85C106.36 88.9 107.98 85.63 109.08 82.18C102.07 81.25 95.24 73.25 92.86 66.39C88.13 69.94 84.24 74.5 81.47 79.73C86.5 87.39 95.09 91.96 104.26 91.85ZM85.03 95.3C85.84 97.93 87.21 100.36 89.04 102.41C93.49 107.45 99.71 110.57 106.4 111.13C111.76 111.61 117.14 110.38 121.76 107.61C126.17 104.98 129.73 101.13 132.01 96.52C130.32 96.87 128.6 97.03 126.88 97C123.29 96.95 119.78 95.94 116.72 94.05C116.7 94.04 116.55 93.93 116.53 93.92C105.86 98.57 93.5 96.95 84.38 89.73C84.25 91.61 84.47 93.5 85.03 95.3ZM142.67 47.96C142.49 49.68 142.11 51.39 141.54 53.02C140.41 56.4 138.37 59.4 135.66 61.71C135.63 61.72 135.43 61.88 135.41 61.9C136.56 73.49 131.2 84.77 121.49 91.2C123.23 91.9 125.09 92.28 126.98 92.31C129.73 92.34 132.46 91.8 135 90.72C141.16 88.03 146.05 83.07 148.65 76.86C150.77 71.91 151.26 66.41 150.06 61.16C148.94 56.13 146.37 51.54 142.67 47.96ZM132.63 22.99C138.08 27.87 141.61 34.55 142.56 41.81C148.69 46.24 152.99 52.76 154.64 60.14C155.31 63.15 155.53 66.25 155.28 69.33C155.46 69.06 155.65 68.8 155.83 68.52C162.66 57.96 162.82 44.41 156.24 33.69C150.72 24.17 140.77 18.08 129.78 17.5C130.9 19.24 131.85 21.08 132.63 22.99ZM72.88 24.68C79.25 20.99 86.72 19.69 93.96 21.04C100.06 16.57 107.59 14.5 115.12 15.21C118.18 15.51 121.18 16.27 124.02 17.46C123.81 17.2 123.63 16.93 123.42 16.68C111.62 2.54 90.6 0.64 76.46 12.43C72.2 15.99 68.89 20.55 66.84 25.7C68.82 25.19 70.84 24.85 72.88 24.68ZM64.43 40.78C62.41 45.53 61.79 50.75 62.65 55.84C63.82 54.55 65.13 53.39 66.56 52.4C69.51 50.34 72.96 49.11 76.55 48.85C76.57 48.85 76.73 48.84 76.75 48.84C82.67 38.84 93.61 32.89 105.23 33.35C104.23 31.75 102.95 30.34 101.44 29.19C99.22 27.54 96.68 26.39 93.98 25.8C87.41 24.37 80.54 25.51 74.78 28.98C72.49 30.34 70.42 32.06 68.66 34.07C66.91 36.07 65.48 38.34 64.43 40.78ZM56.08 82.07C54.53 74.86 55.61 67.35 59.12 60.87C56.76 53.68 57.12 45.87 60.13 38.92C61.34 36.11 62.98 33.49 64.99 31.18C64.69 31.29 64.39 31.38 64.09 31.5C52.35 36.02 44.25 46.89 43.27 59.44C42.14 70.4 46.63 81.18 55.2 88.11C55.31 86.07 55.61 84.05 56.08 82.07ZM68.83 95.06C72.71 98.44 77.48 100.63 82.58 101.37C81.72 99.88 81.04 98.3 80.55 96.66C79.46 93.22 79.34 89.55 80.2 86.05C80.21 86.03 80.26 85.84 80.27 85.82C72.51 77.13 70.22 64.86 74.31 53.96C72.49 54.41 70.77 55.18 69.23 56.25C66.97 57.86 65.07 59.92 63.66 62.31C60.28 68.13 59.24 75.03 60.75 81.59C61.34 84.18 62.33 86.65 63.7 88.92C65.08 91.23 66.81 93.3 68.83 95.06ZM105.41 115.72C98.11 114.95 91.31 111.6 86.25 106.28C78.7 106.32 71.41 103.58 65.75 98.59C63.43 96.56 61.43 94.19 59.83 91.56C59.84 91.87 59.84 92.18 59.86 92.5C61.08 110.87 76.96 124.76 95.32 123.54C100.87 123.17 106.23 121.42 110.93 118.45C109.01 117.7 107.17 116.79 105.41 115.72Z" id="bvlobvhp1"></path><path d="M107.27 425.52C108.85 419.31 108.41 412.76 106.01 406.82C112.16 397.25 112.31 385 106.41 375.27C106.41 375.27 106.41 375.27 106.41 375.27C100.65 365.46 89.81 359.8 78.47 360.66C71.25 351.84 59.65 347.91 48.56 350.53C48.56 350.53 48.56 350.53 48.56 350.53C37.44 352.98 28.7 361.55 26.02 372.61C10.56 378.76 3.01 396.29 9.16 411.75C11.54 417.71 15.75 422.76 21.18 426.16C22.27 442.78 36.61 455.37 53.23 454.29C59.63 453.88 65.74 451.43 70.65 447.31C86.78 451.41 103.18 441.65 107.27 425.52Z" id="b2dllXMVdT"></path><path d="M19.29 427.3C4.54 417.44 0.59 397.49 10.46 382.74C13.89 377.63 18.7 373.61 24.35 371.16C29.19 354.08 46.95 344.17 64.03 349.01C69.93 350.68 75.24 354.02 79.31 358.61C97.04 357.95 111.96 371.78 112.63 389.51C112.86 395.65 111.33 401.72 108.22 407.02C114.34 423.66 105.8 442.12 89.16 448.24C83.39 450.37 77.13 450.79 71.13 449.46C61.91 456.76 49.43 458.4 38.62 453.75C27.8 449.17 20.37 439.01 19.29 427.3ZM101.72 414.81C99.2 420.5 94.73 425.1 89.11 427.79C87.16 433.87 83.05 439.02 77.55 442.27C75.31 443.6 72.88 444.58 70.35 445.17C70.62 445.25 70.88 445.34 71.15 445.4C86.24 449.22 101.57 440.07 105.38 424.97C106.53 420.42 106.53 415.65 105.36 411.1C104.26 412.44 103.05 413.69 101.72 414.81ZM37.76 400.57C37.43 404.14 37.95 407.74 39.27 411.07C46.57 399.27 61.19 390.06 82.39 396.6C79.85 387.48 71.93 380.87 62.5 380.01C49.99 378.85 38.91 388.06 37.76 400.57ZM88.53 391.34C89.28 389.12 89.55 386.77 89.31 384.44C88.74 378.79 86.03 373.57 81.75 369.84C78.32 366.87 74.05 365.03 69.53 364.6C65.19 364.2 60.82 365.06 56.97 367.1C58.3 367.7 59.57 368.45 60.73 369.33C63.16 371.14 65.05 373.59 66.2 376.39C66.2 376.41 66.27 376.59 66.27 376.62C75.87 378.77 83.51 386.01 86.19 395.47C87.22 394.25 88.01 392.85 88.53 391.34ZM68.06 398.33C71.71 405.23 70.79 416.09 65.83 424.85C76.83 422.23 84.22 411.9 83.14 400.65C82.79 400.74 82.43 400.73 82.09 400.63C77.58 399.08 72.83 398.3 68.06 398.33ZM54.55 401.76C55.81 406.61 61.32 413.33 65.78 413.43C66.86 407.68 66.21 402.08 63.63 398.71C60.45 399.21 57.38 400.24 54.55 401.76ZM60.72 425.51C62.5 423.01 63.87 420.25 64.8 417.32C58.87 416.53 53.09 409.77 51.08 403.96C47.07 406.97 43.78 410.82 41.44 415.25C45.7 421.73 52.96 425.6 60.72 425.51ZM44.45 428.43C45.13 430.65 46.29 432.71 47.85 434.44C51.61 438.7 56.87 441.35 62.53 441.82C67.07 442.23 71.62 441.19 75.53 438.85C79.26 436.62 82.28 433.36 84.2 429.46C82.78 429.76 81.32 429.89 79.86 429.86C76.82 429.83 73.85 428.96 71.26 427.37C71.25 427.36 71.12 427.27 71.1 427.25C62.08 431.19 51.62 429.83 43.9 423.71C43.79 425.3 43.98 426.9 44.45 428.43ZM93.22 388.36C93.07 389.83 92.75 391.26 92.27 392.65C91.31 395.51 89.59 398.05 87.29 400C87.27 400.01 87.1 400.15 87.08 400.16C88.05 409.97 83.52 419.52 75.3 424.95C76.77 425.55 78.35 425.87 79.94 425.9C82.28 425.92 84.59 425.47 86.73 424.55C91.95 422.27 96.08 418.07 98.28 412.83C100.07 408.63 100.49 403.98 99.48 399.54C98.53 395.28 96.35 391.4 93.22 388.36ZM84.73 367.24C89.34 371.37 92.33 377.02 93.13 383.16C98.32 386.91 101.96 392.43 103.35 398.67C103.92 401.22 104.11 403.84 103.89 406.45C104.04 406.22 104.21 406 104.36 405.77C112.66 392.58 108.69 375.16 95.51 366.86C91.53 364.36 87 362.9 82.32 362.59C83.26 364.06 84.07 365.62 84.73 367.24ZM34.17 368.67C39.55 365.54 45.88 364.45 52 365.59C57.17 361.8 63.54 360.05 69.91 360.66C72.5 360.91 75.04 361.55 77.44 362.56C77.27 362.34 77.11 362.11 76.93 361.9C66.95 349.93 49.16 348.32 37.19 358.3C33.59 361.31 30.79 365.17 29.05 369.53C30.73 369.1 32.44 368.81 34.17 368.67ZM27.02 382.29C25.31 386.31 24.78 390.73 25.51 395.04C26.5 393.94 27.61 392.96 28.82 392.12C31.32 390.38 34.24 389.34 37.28 389.12C37.29 389.12 37.43 389.11 37.44 389.11C42.45 380.65 51.71 375.61 61.54 376.01C60.7 374.65 59.61 373.45 58.34 372.49C56.46 371.09 54.3 370.11 52.02 369.61C46.46 368.41 40.65 369.37 35.78 372.3C33.83 373.46 32.08 374.91 30.59 376.61C29.11 378.31 27.91 380.22 27.02 382.29ZM19.95 417.23C18.64 411.13 19.56 404.77 22.53 399.29C20.53 393.2 20.83 386.59 23.38 380.72C24.4 378.33 25.79 376.13 27.49 374.17C27.24 374.26 26.98 374.34 26.73 374.44C12.27 380.22 5.23 396.63 11.01 411.09C12.76 415.47 15.58 419.33 19.2 422.34C19.3 420.62 19.55 418.91 19.95 417.23ZM30.74 428.22C34.02 431.08 38.06 432.94 42.37 433.56C41.65 432.3 41.07 430.96 40.65 429.57C39.73 426.66 39.63 423.56 40.36 420.6C40.37 420.58 40.41 420.42 40.42 420.4C33.86 413.05 31.91 402.67 35.38 393.44C33.84 393.82 32.38 394.48 31.08 395.38C29.16 396.74 27.56 398.49 26.37 400.51C23.5 405.44 22.62 411.27 23.91 416.82C24.4 419.01 25.24 421.11 26.4 423.03C27.56 424.98 29.03 426.73 30.74 428.22ZM61.7 445.7C55.51 445.05 49.76 442.22 45.48 437.72C39.1 437.75 32.92 435.43 28.13 431.21C26.17 429.49 24.48 427.49 23.12 425.26C23.13 425.53 23.13 425.79 23.15 426.06C24.18 441.6 37.62 453.36 53.16 452.32C57.85 452.01 62.39 450.53 66.37 448.01C64.74 447.38 63.18 446.61 61.7 445.7Z" id="buVwtYNnY"></path><path d="M195.01 367.85C197.38 362.91 198.11 357.34 197.1 351.96C203.87 344.97 206.06 334.73 202.75 325.59C202.75 325.59 202.75 325.58 202.75 325.58C199.57 316.4 191.44 309.82 181.79 308.64C177.22 300.04 168.16 294.79 158.42 295.11C158.42 295.11 158.42 295.11 158.42 295.11C148.7 295.3 139.92 301.01 135.82 309.83C121.82 312.39 112.55 325.8 115.1 339.8C116.09 345.19 118.77 350.13 122.76 353.9C120.86 368.01 130.77 380.98 144.88 382.87C150.32 383.6 155.84 382.57 160.66 379.95C173.48 386.09 188.87 380.68 195.01 367.85Z" id="eKB9j74OB"></path><path d="M120.97 354.54C110.28 343.79 110.32 326.4 121.07 315.71C124.8 312 129.52 309.44 134.66 308.33C141.59 294.83 158.15 289.51 171.64 296.44C176.31 298.84 180.2 302.53 182.84 307.06C197.81 309.49 207.99 323.59 205.56 338.57C204.73 343.75 202.42 348.58 198.92 352.5C201.25 367.48 190.99 381.51 176.01 383.84C170.82 384.65 165.5 383.95 160.7 381.83C151.74 386.39 141 385.67 132.73 379.96C124.43 374.3 119.91 364.53 120.97 354.54ZM192.17 357.94C189.1 362.28 184.57 365.39 179.42 366.69C176.76 371.46 172.44 375.09 167.28 376.89C165.19 377.62 162.99 378.03 160.77 378.11C160.98 378.21 161.18 378.33 161.39 378.43C169.55 382.46 179.29 381.44 186.43 375.81C192.81 371.05 196.35 363.38 195.84 355.44C194.69 356.38 193.46 357.22 192.17 357.94ZM140.95 335.24C140.07 338.18 139.9 341.28 140.45 344.3C148.56 335.63 162.36 330.37 179.03 339.42C178.43 331.35 172.91 324.48 165.15 322.17C154.86 319.09 144.02 324.95 140.95 335.24ZM185.06 336.04C186.06 334.31 186.68 332.39 186.87 330.4C187.35 325.56 185.96 320.73 182.99 316.88C180.62 313.81 177.35 311.56 173.63 310.44C170.06 309.37 166.26 309.36 162.68 310.42C163.7 311.15 164.63 311.98 165.46 312.92C167.19 314.85 168.36 317.21 168.85 319.76C168.86 319.78 168.88 319.94 168.88 319.96C176.56 323.38 181.75 330.73 182.4 339.11C183.47 338.26 184.37 337.22 185.06 336.04ZM166.73 338.46C168.62 344.85 166.03 353.81 160.39 360.31C170.06 359.97 177.99 352.55 178.97 342.94C178.67 342.96 178.37 342.89 178.1 342.75C174.58 340.69 170.73 339.24 166.73 338.46ZM154.82 339.06C155.06 343.34 158.55 349.9 162.28 350.74C164.15 346.09 164.55 341.29 162.95 338.04C160.2 337.92 157.45 338.27 154.82 339.06ZM156 360C157.91 358.21 159.53 356.12 160.8 353.83C155.96 352.17 152.25 345.53 151.54 340.32C147.68 342.17 144.28 344.84 141.57 348.16C144.04 354.31 149.48 358.77 156 360ZM141.87 359.71C142.07 361.69 142.7 363.61 143.71 365.33C146.14 369.53 150.11 372.63 154.77 373.98C158.51 375.09 162.5 374.98 166.17 373.67C169.67 372.43 172.75 370.21 175.02 367.26C173.77 367.27 172.53 367.14 171.31 366.87C168.77 366.33 166.42 365.11 164.53 363.33C164.51 363.32 164.42 363.23 164.41 363.21C156.18 364.99 147.65 362.09 142.21 355.67C141.85 356.98 141.73 358.35 141.87 359.71ZM189.49 334.34C189.12 335.54 188.61 336.69 187.97 337.77C186.69 340.01 184.82 341.84 182.56 343.09C182.54 343.1 182.38 343.19 182.36 343.2C181.53 351.58 176.12 358.82 168.31 361.99C169.45 362.74 170.72 363.27 172.05 363.56C174 363.98 176.01 363.98 177.96 363.58C182.72 362.55 186.89 359.72 189.62 355.69C191.82 352.48 192.96 348.65 192.86 344.76C192.77 341.03 191.6 337.41 189.49 334.34ZM185.93 315.2C189.1 319.44 190.65 324.68 190.29 329.97C194.01 333.98 196.13 339.22 196.24 344.68C196.3 346.92 196.01 349.15 195.39 351.29C195.56 351.13 195.73 350.97 195.9 350.8C205.07 341.14 204.68 325.88 195.02 316.7C192.11 313.94 188.56 311.95 184.69 310.9C185.23 312.29 185.65 313.73 185.93 315.2ZM143.31 307.9C148.35 306.18 153.84 306.33 158.78 308.31C163.74 306.01 169.38 305.62 174.61 307.19C176.74 307.84 178.76 308.8 180.61 310.06C180.5 309.84 180.4 309.63 180.29 309.42C176.04 301.37 167.56 296.47 158.46 296.81C150.5 296.92 143.14 301.04 138.88 307.76C140.36 307.68 141.84 307.72 143.31 307.9ZM135.03 318.11C132.92 321.19 131.73 324.81 131.62 328.54C132.63 327.79 133.73 327.16 134.88 326.65C137.27 325.61 139.89 325.23 142.48 325.56C142.49 325.56 142.6 325.58 142.62 325.58C148.24 319.33 156.84 316.67 165.02 318.65C164.54 317.37 163.83 316.19 162.92 315.16C161.58 313.68 159.94 312.49 158.11 311.69C153.66 309.74 148.63 309.57 144.05 311.21C142.22 311.86 140.51 312.78 138.98 313.95C137.45 315.12 136.12 316.53 135.03 318.11ZM123.23 346.2C123.15 340.87 124.99 335.7 128.4 331.6C127.75 326.17 129.11 320.68 132.24 316.18C133.5 314.35 135.04 312.74 136.79 311.38C136.56 311.42 136.34 311.44 136.11 311.48C123.01 313.89 114.35 326.47 116.77 339.56C117.49 343.52 119.2 347.23 121.74 350.36C122.11 348.93 122.61 347.54 123.23 346.2ZM130.42 357.23C132.69 360.18 135.76 362.42 139.27 363.67C138.87 362.49 138.62 361.27 138.5 360.03C138.22 357.44 138.66 354.82 139.76 352.46C139.77 352.45 139.84 352.32 139.85 352.31C135.58 345.04 135.7 336.01 140.16 328.86C138.8 328.92 137.47 329.23 136.23 329.76C134.39 330.58 132.75 331.78 131.41 333.27C128.18 336.92 126.47 341.66 126.61 346.53C126.65 348.45 127.01 350.35 127.65 352.15C128.3 353.98 129.24 355.7 130.42 357.23ZM153.42 377.09C148.35 375.51 144.01 372.17 141.17 367.67C135.82 366.62 131.03 363.64 127.73 359.3C126.37 357.53 125.29 355.56 124.53 353.47C124.5 353.69 124.45 353.91 124.42 354.14C122.67 367.34 131.95 379.46 145.15 381.2C149.14 381.73 153.19 381.25 156.94 379.82C155.69 379.01 154.51 378.1 153.42 377.09Z" id="a5Rbjwjxa"></path><path d="M159.95 743.08C164.4 737.78 167.05 731.19 167.51 724.29C177.99 717.86 183.89 706.02 182.72 693.78C182.72 693.78 182.72 693.78 182.72 693.78C181.72 681.54 173.84 670.93 162.41 666.44C159.53 654.48 150.08 645.2 138.07 642.53C138.07 642.53 138.07 642.53 138.07 642.53C126.1 639.69 113.57 643.92 105.77 653.43C87.83 652.15 72.25 665.65 70.98 683.59C70.49 690.5 72.21 697.39 75.9 703.25C69.15 719.93 77.19 738.92 93.86 745.68C100.28 748.28 107.37 748.77 114.09 747.07C127.86 758.63 148.39 756.84 159.95 743.08Z" id="axPYM0QJf"></path><path d="M73.52 703.47C63.81 686.95 69.34 665.68 85.87 655.98C91.6 652.61 98.18 650.96 104.82 651.23C117.55 636.89 139.49 635.59 153.83 648.32C158.79 652.73 162.38 658.46 164.18 664.84C181.75 672.53 189.76 692.99 182.08 710.56C179.42 716.64 175.08 721.83 169.57 725.51C167.7 744.59 150.73 758.54 131.65 756.67C125.05 756.02 118.76 753.5 113.55 749.39C101.15 752.15 88.23 747.89 79.91 738.29C71.53 728.75 69.07 715.37 73.52 703.47ZM159.59 730.05C154.46 734.4 147.95 736.78 141.22 736.75C136.47 741.75 130.04 744.83 123.17 745.41C120.37 745.64 117.55 745.46 114.8 744.85C115.03 745.05 115.24 745.25 115.47 745.45C128.36 756.25 147.57 754.55 158.37 741.65C161.63 737.76 163.86 733.12 164.87 728.15C163.17 728.94 161.4 729.57 159.59 730.05ZM104.05 686.14C102.05 689.46 100.86 693.21 100.59 697.07C113.23 689.02 131.78 686.92 149.33 703.25C151.15 693.18 146.55 683.03 137.78 677.76C126.15 670.76 111.05 674.51 104.05 686.14ZM157.78 701.01C159.55 699.21 160.91 697.05 161.78 694.67C163.88 688.9 163.7 682.55 161.28 676.91C159.34 672.41 156.05 668.62 151.86 666.08C147.82 663.64 143.17 662.44 138.46 662.61C139.48 663.82 140.36 665.13 141.08 666.54C142.59 669.45 143.27 672.71 143.07 675.98C143.07 676 143.05 676.21 143.04 676.23C151.37 682.84 155.4 693.47 153.56 703.93C155.13 703.23 156.56 702.24 157.78 701.01ZM134.58 698.2C134.89 706.62 128.89 716.77 119.95 722.95C131.88 725.57 143.92 719 148.16 707.54C147.78 707.46 147.43 707.29 147.15 707.03C143.49 703.4 139.24 700.41 134.58 698.2ZM119.82 695.19C118.77 700.5 120.97 709.63 125.27 711.82C129.02 706.73 131.02 700.98 130.09 696.49C126.76 695.48 123.29 695.04 119.82 695.19ZM114.67 721.19C117.58 719.59 120.21 717.55 122.48 715.14C117.09 711.59 114.64 702.29 115.41 695.7C110.1 696.74 105.09 698.94 100.74 702.15C101.83 710.46 107.08 717.64 114.67 721.19ZM97.47 716.38C97.09 718.87 97.25 721.41 97.95 723.83C99.6 729.75 103.48 734.79 108.77 737.91C112.99 740.44 117.91 741.57 122.81 741.12C127.49 740.71 131.95 738.95 135.66 736.06C134.13 735.69 132.65 735.13 131.25 734.42C128.31 732.95 125.82 730.72 124.06 727.95C124.05 727.93 123.96 727.79 123.95 727.77C113.32 727.35 103.79 721.11 99.15 711.54C98.3 713.04 97.73 714.68 97.47 716.38ZM163.74 700.32C162.91 701.67 161.92 702.92 160.8 704.05C158.52 706.37 155.66 708.04 152.51 708.85C152.48 708.86 152.25 708.91 152.22 708.92C148.56 718.92 139.67 726.07 129.11 727.5C130.27 728.77 131.65 729.82 133.19 730.6C135.45 731.72 137.91 732.36 140.43 732.48C146.57 732.72 152.57 730.57 157.17 726.5C160.89 723.26 163.48 718.93 164.58 714.13C165.65 709.54 165.36 704.74 163.74 700.32ZM165.4 675.78C167.95 681.97 168.2 688.87 166.1 695.22C169.39 701.3 170.33 708.38 168.75 715.11C168.11 717.86 167.06 720.5 165.62 722.93C165.88 722.78 166.15 722.64 166.4 722.48C180.67 713.55 184.99 694.75 176.06 680.48C173.37 676.18 169.65 672.62 165.24 670.13C165.47 672 165.52 673.89 165.4 675.78ZM115.54 653.42C122.25 652.91 128.92 654.81 134.34 658.8C141.14 657.55 148.16 658.83 154.08 662.41C156.48 663.88 158.65 665.69 160.51 667.8C160.45 667.51 160.4 667.22 160.33 666.92C156.24 650.59 139.69 640.67 123.36 644.76C118.43 645.99 113.9 648.43 110.16 651.86C112 652.22 113.8 652.74 115.54 653.42ZM102.19 663.31C98.64 666.41 96.05 670.47 94.74 675C96.21 674.41 97.75 673.97 99.32 673.72C102.57 673.2 105.9 673.56 108.96 674.77C108.98 674.78 109.11 674.84 109.13 674.85C117.98 668.96 129.35 668.41 138.73 673.42C138.54 671.7 138.05 670.03 137.26 668.49C136.09 666.25 134.46 664.28 132.47 662.72C127.62 658.94 121.52 657.15 115.4 657.71C112.97 657.92 110.58 658.52 108.33 659.47C106.1 660.42 104.02 661.72 102.19 663.31ZM78.9 693.98C80.49 687.44 84.37 681.68 89.83 677.74C90.74 670.88 94.14 664.59 99.39 660.07C101.5 658.24 103.89 656.74 106.47 655.63C106.18 655.61 105.89 655.56 105.6 655.54C88.81 654.37 74.25 667.03 73.08 683.82C72.73 688.89 73.65 693.98 75.77 698.6C76.68 696.97 77.72 695.43 78.9 693.98ZM84.23 709.75C86.08 714.07 89.14 717.77 93.04 720.41C92.92 718.84 92.99 717.27 93.24 715.72C93.71 712.46 95.07 709.39 97.17 706.85C97.19 706.84 97.31 706.7 97.32 706.68C94.39 696.45 97.38 685.43 105.08 678.09C103.41 677.73 101.68 677.69 99.99 677.95C97.49 678.38 95.1 679.32 92.99 680.73C87.89 684.18 84.3 689.44 82.94 695.45C82.39 697.81 82.22 700.24 82.45 702.66C82.67 705.1 83.27 707.49 84.23 709.75ZM106.14 741.29C100.42 737.76 96.16 732.3 94.11 725.91C87.88 722.94 82.96 717.79 80.29 711.43C79.19 708.84 78.48 706.09 78.21 703.29C78.1 703.55 77.97 703.8 77.86 704.07C71.56 719.68 79.11 737.43 94.72 743.72C99.43 745.62 104.54 746.32 109.59 745.74C108.31 744.36 107.15 742.87 106.14 741.29Z" id="b1k03YeEfc"></path><path d="M134.7 602.05C156.23 624.96 163.5 645.52 157.59 666.75C152.38 685.44 137.78 701.75 122.32 719.02C86.12 759.46 48.68 801.28 132.07 878.36C132.51 878.77 132.54 879.46 132.13 879.91C131.73 880.35 131.04 880.38 130.59 879.97C130.59 879.97 130.59 879.97 130.58 879.97C130.58 879.97 130.58 879.97 130.58 879.97C92.63 844.89 76.17 813.66 80.24 784.51C83.85 758.72 102.58 737.8 120.7 717.56C150.69 684.05 179.02 652.4 133.1 603.55C132.69 603.11 132.71 602.42 133.15 602C133.35 601.81 133.62 601.71 133.9 601.71C134.2 601.71 134.49 601.83 134.7 602.05Z" id="bPozD73EY"></path><path d="M106.94 630C106.94 630.27 106.84 630.53 106.66 630.74C84.69 654.99 81.63 683.15 82.94 702.5C85.37 738.55 103.49 769.29 119.29 782.6C119.75 782.99 119.81 783.68 119.42 784.14C119.03 784.6 118.34 784.66 117.88 784.27C101.74 770.68 83.24 739.33 80.76 702.64C78.85 674.29 87.24 648.92 105.04 629.27C105.25 629.04 105.54 628.91 105.85 628.91C106.45 628.91 106.94 629.4 106.94 630Z" id="a5bWETvvLt"></path><path d="M65.07 698.41C65.91 699.52 66.95 701.86 68.74 702.09C69.79 702.27 70.87 701.94 71.65 701.21C74.29 698.32 74.09 694.22 78.28 690.06C78.49 689.85 78.73 689.67 79 689.53C77.65 693.02 75.22 701.59 80.86 708.93C82.6 707.41 84.6 706.21 86.76 705.37C88.07 704.92 90.62 704.65 91.39 703.02C91.88 702.07 91.91 700.95 91.45 699.98C89.52 696.58 85.56 695.5 82.9 690.23C82.76 689.96 82.67 689.67 82.62 689.38C85.52 691.74 92.92 696.7 101.64 693.61C100.74 691.48 100.21 689.21 100.08 686.89C100.06 685.51 100.58 683 99.27 681.77C98.53 681 97.46 680.63 96.4 680.77C92.57 681.55 90.32 684.99 84.48 685.89C84.19 685.94 83.88 685.94 83.59 685.89C86.73 683.86 93.74 678.36 93.49 669.11C91.18 669.31 88.86 669.11 86.62 668.52C85.3 668.11 83.08 666.84 81.5 667.7C80.54 668.17 79.86 669.07 79.66 670.12C79.22 674.01 81.79 677.21 80.85 683.04C80.8 683.34 80.71 683.63 80.57 683.89C79.61 680.29 76.56 671.92 67.67 669.29C67.15 671.54 66.24 673.69 64.98 675.64C64.19 676.77 62.29 678.49 62.62 680.26C62.78 681.32 63.42 682.24 64.36 682.76C67.92 684.37 71.76 682.92 77.01 685.62C77.28 685.75 77.52 685.93 77.74 686.14C74 685.94 65.1 686.27 59.86 693.9C61.84 695.09 63.61 696.62 65.07 698.41Z" id="an5DcpMEH"></path><path d="M133.52 599.84C130.22 598.08 122.01 594.62 114.05 599.33C115.34 601.25 116.29 603.38 116.87 605.62C117.16 606.98 117.12 609.54 118.64 610.5C119.52 611.11 120.64 611.27 121.65 610.93C125.26 609.42 126.81 605.62 132.36 603.62C132.65 603.51 132.94 603.45 133.24 603.44C130.55 606.04 124.73 612.78 126.75 621.81C128.97 621.18 131.29 620.93 133.6 621.08C134.98 621.22 137.4 622.05 138.79 620.9C139.64 620.24 140.13 619.23 140.13 618.16C139.81 614.26 136.67 611.61 136.48 605.72C136.47 605.41 136.51 605.11 136.59 604.82C138.22 608.18 142.82 615.81 152.05 616.68C152.13 614.37 152.61 612.09 153.47 609.94C154.03 608.67 155.57 606.62 154.9 604.95C154.54 603.94 153.73 603.15 152.71 602.83C148.91 601.92 145.42 604.09 139.75 602.45C139.46 602.37 139.18 602.24 138.93 602.07C142.63 601.56 151.31 599.54 154.99 591.03C152.81 590.24 150.79 589.08 149.01 587.6C147.98 586.67 146.5 584.58 144.71 584.7C143.64 584.72 142.64 585.25 142.02 586.12C139.98 589.46 140.97 593.45 137.65 598.33C137.49 598.58 137.28 598.8 137.04 598.99C137.7 595.3 138.44 586.43 131.5 580.31C130.08 582.13 128.35 583.7 126.39 584.93C125.19 585.63 122.74 586.38 122.3 588.13C121.99 589.15 122.19 590.27 122.82 591.13C125.37 594.1 129.47 594.39 133.09 599.05C133.27 599.29 133.42 599.55 133.52 599.84Z" id="a3tsD8J7Lw"></path><path d="M171.14 656.21C174.33 654.15 181.46 646.45 179.58 636.4C177.47 643.97 173.19 647.67 167.65 649.37C162.09 651.08 160.39 654.94 163.12 656.34C163.31 659.39 166.52 659.21 171.14 656.21Z" id="dLo1rpuYM"></path><path d="M107.43 635.81C110.84 631.48 113.53 626.63 115.38 621.43C110.21 623.35 105.38 626.09 101.1 629.56C96.4 633.3 96.6 636.29 99.84 637.16C100.76 640.39 103.75 640.55 107.43 635.81Z" id="a2V76VBsAu"></path><path d="M145.37 653.58C143.21 650.46 142 645.68 140.85 638.88C144.64 645.27 148.37 645.94 151.97 648.55C156.41 651.76 155.22 654.53 152.22 655.17C151.24 658.07 148.5 658.08 145.37 653.58Z" id="a78gqR5Zde"></path><path d="M167.46 654.02C167.46 654.38 167.22 654.7 166.87 654.8C161.68 656.33 157.3 667.62 155.65 671.86C155.4 672.63 155.08 673.36 154.7 674.07C154.44 674.44 153.92 674.52 153.56 674.25C153.21 673.99 153.12 673.5 153.36 673.14C153.46 672.96 153.8 672.1 154.12 671.27C156.01 666.4 160.45 654.98 166.41 653.23C166.48 653.2 166.56 653.19 166.64 653.19C167.09 653.19 167.46 653.56 167.46 654.02Z" id="fBZsQz29"></path><path d="M149.81 651.62C155.61 654.17 156.68 666.46 154.86 673.8C154.75 674.24 154.3 674.5 153.86 674.38C153.43 674.27 153.17 673.84 153.27 673.41C155.12 665.9 153.59 655.07 149.15 653.12C148.74 652.94 148.55 652.46 148.74 652.04C148.87 651.75 149.16 651.56 149.48 651.55C149.6 651.55 149.71 651.58 149.81 651.62Z" id="a1v26lMqVs"></path><path d="M134.7 409.84C156.23 432.75 163.5 453.31 157.59 474.54C152.38 493.23 137.78 509.54 122.32 526.81C86.12 567.26 48.68 609.08 132.07 686.15C132.51 686.56 132.54 687.26 132.13 687.7C131.72 688.14 131.03 688.17 130.58 687.76C92.63 652.68 76.17 621.46 80.24 592.3C83.85 566.52 102.58 545.59 120.7 525.35C150.69 491.85 179.02 460.2 133.1 411.34C132.69 410.9 132.71 410.21 133.15 409.8C133.35 409.6 133.62 409.5 133.9 409.5C134.2 409.5 134.49 409.62 134.7 409.84Z" id="bxdNPhozC"></path><path d="M106.94 437.79C106.94 438.07 106.84 438.33 106.66 438.53C84.69 462.78 81.63 490.94 82.94 510.29C85.37 546.34 103.49 577.09 119.29 590.39C119.75 590.78 119.81 591.47 119.42 591.93C119.03 592.39 118.34 592.45 117.88 592.06C101.74 578.47 83.24 547.13 80.76 510.44C78.85 482.08 87.24 456.71 105.04 437.06C105.25 436.83 105.54 436.7 105.85 436.7C106.45 436.7 106.94 437.19 106.94 437.79Z" id="eDZyEHWaZ"></path><path d="M65.07 506.21C65.91 507.32 66.95 509.65 68.74 509.88C69.79 510.06 70.87 509.74 71.65 509C74.29 506.11 74.09 502.01 78.28 497.85C78.49 497.64 78.73 497.46 79 497.33C77.65 500.82 75.22 509.38 80.86 516.72C82.6 515.21 84.6 514 86.76 513.17C88.07 512.71 90.62 512.44 91.39 510.81C91.88 509.87 91.91 508.74 91.45 507.77C89.52 504.37 85.56 503.29 82.9 498.02C82.76 497.76 82.67 497.47 82.62 497.17C85.52 499.53 92.92 504.5 101.64 501.4C100.74 499.27 100.21 497 100.08 494.69C100.06 493.3 100.58 490.8 99.27 489.56C98.53 488.79 97.46 488.42 96.4 488.56C92.57 489.35 90.32 492.78 84.48 493.68C84.19 493.73 83.88 493.73 83.59 493.68C86.73 491.65 93.74 486.16 93.49 476.9C91.18 477.1 88.86 476.9 86.62 476.31C85.3 475.9 83.08 474.63 81.5 475.49C80.54 475.97 79.86 476.87 79.66 477.92C79.22 481.81 81.79 485.01 80.85 490.83C80.8 491.13 80.71 491.42 80.57 491.69C79.61 488.08 76.56 479.71 67.67 477.08C67.15 479.34 66.24 481.48 64.98 483.43C64.19 484.57 62.29 486.28 62.62 488.05C62.78 489.11 63.42 490.04 64.36 490.55C67.92 492.17 71.76 490.71 77.01 493.41C77.28 493.55 77.52 493.72 77.74 493.94C74 493.73 65.1 494.06 59.86 501.69C61.84 502.89 63.61 504.41 65.07 506.21Z" id="e16s6RZvIj"></path><path d="M133.52 407.63C130.22 405.87 122.01 402.42 114.05 407.13C115.34 409.05 116.29 411.17 116.87 413.42C117.16 414.77 117.12 417.33 118.64 418.29C119.52 418.9 120.64 419.06 121.65 418.72C125.26 417.22 126.81 413.41 132.36 411.41C132.65 411.31 132.94 411.25 133.24 411.24C130.55 413.83 124.73 420.58 126.75 429.61C128.97 428.97 131.29 428.72 133.6 428.87C134.98 429.01 137.4 429.84 138.79 428.69C139.64 428.04 140.13 427.03 140.13 425.96C139.81 422.06 136.67 419.41 136.48 413.51C136.47 413.21 136.51 412.91 136.59 412.62C138.22 415.97 142.82 423.6 152.05 424.48C152.13 422.16 152.61 419.88 153.47 417.73C154.03 416.46 155.57 414.41 154.9 412.74C154.54 411.73 153.73 410.95 152.71 410.62C148.91 409.72 145.42 411.89 139.75 410.24C139.46 410.16 139.18 410.03 138.93 409.86C142.63 409.35 151.31 407.33 154.99 398.82C152.81 398.03 150.79 396.87 149.01 395.39C147.98 394.46 146.5 392.37 144.71 392.49C143.64 392.52 142.64 393.04 142.02 393.91C139.98 397.25 140.97 401.24 137.65 406.13C137.49 406.38 137.28 406.6 137.04 406.78C137.7 403.1 138.44 394.22 131.5 388.1C130.08 389.93 128.35 391.49 126.39 392.73C125.19 393.42 122.74 394.18 122.3 395.92C121.99 396.95 122.19 398.06 122.82 398.92C125.37 401.89 129.47 402.19 133.09 406.85C133.27 407.08 133.42 407.35 133.52 407.63Z" id="b1DS7GFc6K"></path><path d="M171.14 464C174.33 461.94 181.46 454.24 179.58 444.2C177.47 451.76 173.19 455.47 167.65 457.17C162.09 458.88 160.39 462.73 163.12 464.13C163.31 467.19 166.52 467 171.14 464Z" id="d2PS3v0UjD"></path><path d="M107.43 443.6C110.84 439.28 113.53 434.42 115.38 429.22C110.21 431.14 105.38 433.89 101.1 437.36C96.4 441.09 96.6 444.08 99.84 444.95C100.76 448.18 103.75 448.35 107.43 443.6Z" id="b1wrZ3fugb"></path><path d="M145.37 461.37C143.21 458.25 142 453.48 140.85 446.68C144.64 453.06 148.37 453.74 151.97 456.35C156.41 459.56 155.22 462.32 152.22 462.96C151.24 465.86 148.5 465.87 145.37 461.37Z" id="b3PuXgIF1W"></path><path d="M167.46 461.81C167.46 462.17 167.22 462.49 166.87 462.59C161.68 464.12 157.3 475.41 155.65 479.66C155.4 480.42 155.08 481.16 154.7 481.87C154.44 482.23 153.92 482.31 153.56 482.04C153.21 481.78 153.12 481.3 153.36 480.93C153.46 480.76 153.8 479.9 154.12 479.07C156.01 474.19 160.45 462.78 166.41 461.02C166.48 461 166.56 460.99 166.64 460.99C167.09 460.99 167.46 461.36 167.46 461.81Z" id="dC0hmKNb"></path><path d="M149.81 459.42C155.61 461.96 156.68 474.25 154.86 481.59C154.75 482.03 154.3 482.29 153.86 482.18C153.43 482.07 153.17 481.63 153.27 481.2C155.12 473.7 153.59 462.86 149.15 460.92C148.74 460.74 148.55 460.25 148.74 459.84C148.87 459.54 149.16 459.35 149.48 459.35C149.6 459.35 149.71 459.37 149.81 459.42Z" id="aqBVoh3wt"></path><path d="M134.7 217.64C156.23 240.55 163.5 261.11 157.59 282.33C152.38 301.03 137.78 317.34 122.32 334.6C86.12 375.05 48.68 416.87 132.07 493.95C132.51 494.36 132.54 495.05 132.13 495.49C131.72 495.93 131.04 495.96 130.59 495.56C130.59 495.56 130.58 495.55 130.58 495.55C92.63 460.47 76.17 429.25 80.24 400.09C83.85 374.31 102.58 353.38 120.7 333.15C150.69 299.64 179.02 267.99 133.1 219.13C132.69 218.69 132.71 218 133.15 217.59C133.35 217.4 133.62 217.29 133.9 217.29C134.2 217.29 134.49 217.42 134.7 217.64Z" id="bWne0IpWu"></path><path d="M106.94 245.59C106.94 245.86 106.84 246.12 106.66 246.32C84.69 270.58 81.63 298.73 82.94 318.08C85.37 354.14 103.49 384.88 119.29 398.19C119.75 398.57 119.81 399.26 119.42 399.73C119.03 400.19 118.34 400.25 117.88 399.86C117.88 399.86 117.88 399.86 117.88 399.86C117.88 399.86 117.88 399.86 117.88 399.86C101.74 386.26 83.24 354.92 80.76 318.23C78.85 289.88 87.24 264.5 105.04 244.86C105.25 244.63 105.54 244.5 105.85 244.5C106.45 244.5 106.94 244.98 106.94 245.59Z" id="al5AgkKXx"></path><path d="M65.07 314C65.91 315.11 66.95 317.45 68.74 317.68C69.79 317.86 70.87 317.53 71.65 316.79C74.29 313.91 74.09 309.8 78.28 305.65C78.49 305.43 78.73 305.26 79 305.12C77.65 308.61 75.22 317.18 80.86 324.52C82.6 323 84.6 321.8 86.76 320.96C88.07 320.51 90.62 320.23 91.39 318.61C91.88 317.66 91.91 316.53 91.45 315.56C89.52 312.16 85.56 311.08 82.9 305.82C82.76 305.55 82.67 305.26 82.62 304.97C85.52 307.33 92.92 312.29 101.64 309.2C100.74 307.06 100.21 304.79 100.08 302.48C100.06 301.09 100.58 298.59 99.27 297.35C98.52 296.59 97.46 296.22 96.4 296.35C92.57 297.14 90.32 300.58 84.48 301.48C84.19 301.52 83.88 301.52 83.59 301.48C86.73 299.45 93.74 293.95 93.49 284.7C91.18 284.89 88.86 284.69 86.62 284.1C85.3 283.7 83.08 282.42 81.5 283.29C80.54 283.76 79.86 284.66 79.66 285.71C79.22 289.6 81.79 292.8 80.85 298.63C80.8 298.92 80.71 299.21 80.57 299.48C79.61 295.87 76.56 287.5 67.67 284.88C67.15 287.13 66.24 289.28 64.98 291.22C64.19 292.36 62.29 294.08 62.62 295.85C62.78 296.91 63.42 297.83 64.36 298.34C67.92 299.96 71.76 298.5 77.01 301.2C77.28 301.34 77.52 301.52 77.74 301.73C74 301.53 65.1 301.85 59.86 309.49C61.84 310.68 63.61 312.21 65.07 314Z" id="b8ZtVmYWM"></path><path d="M133.52 215.42C130.22 213.66 122.01 210.21 114.05 214.92C115.34 216.84 116.29 218.97 116.87 221.21C117.16 222.57 117.12 225.13 118.64 226.09C119.52 226.7 120.64 226.86 121.65 226.52C125.26 225.01 126.81 221.21 132.36 219.21C132.65 219.1 132.94 219.04 133.24 219.03C130.55 221.63 124.73 228.37 126.75 237.4C128.97 236.76 131.29 236.51 133.6 236.66C134.98 236.81 137.4 237.63 138.79 236.48C139.64 235.83 140.13 234.82 140.13 233.75C139.81 229.85 136.67 227.2 136.48 221.3C136.47 221 136.51 220.7 136.59 220.41C138.22 223.77 142.82 231.4 152.05 232.27C152.13 229.96 152.61 227.67 153.47 225.52C154.03 224.26 155.57 222.21 154.9 220.53C154.54 219.52 153.73 218.74 152.71 218.42C148.91 217.51 145.42 219.68 139.75 218.04C139.46 217.96 139.18 217.83 138.93 217.66C142.63 217.15 151.31 215.13 154.99 206.62C152.81 205.83 150.79 204.66 149.01 203.19C147.98 202.26 146.5 200.17 144.71 200.28C143.64 200.31 142.64 200.84 142.02 201.71C139.98 205.05 140.97 209.04 137.65 213.92C137.49 214.17 137.28 214.39 137.04 214.57C137.7 210.89 138.45 202.02 131.5 195.9C130.08 197.72 128.35 199.28 126.39 200.52C125.19 201.22 122.74 201.97 122.3 203.72C121.99 204.74 122.19 205.85 122.82 206.72C125.37 209.68 129.47 209.98 133.09 214.64C133.28 214.88 133.42 215.14 133.52 215.42Z" id="g3Z85MIvBZ"></path><path d="M171.14 271.8C174.33 269.73 181.46 262.03 179.58 251.99C177.47 259.56 173.19 263.26 167.65 264.96C162.09 266.67 160.39 270.52 163.12 271.92C163.31 274.98 166.52 274.79 171.14 271.8Z" id="aVG6rEzYn"></path><path d="M107.43 251.4C110.84 247.07 113.53 242.21 115.38 237.02C110.21 238.93 105.38 241.68 101.1 245.15C96.4 248.88 96.6 251.88 99.84 252.75C100.76 255.97 103.75 256.14 107.43 251.4Z" id="aiXIVq4rp"></path><path d="M145.37 269.17C143.21 266.05 142 261.27 140.85 254.47C144.64 260.85 148.37 261.53 151.97 264.14C156.41 267.35 155.22 270.11 152.22 270.76C151.24 273.66 148.5 273.67 145.37 269.17Z" id="b4qYtnLFpu"></path><path d="M167.46 269.6C167.46 269.96 167.22 270.28 166.87 270.39C161.68 271.91 157.3 283.2 155.65 287.45C155.4 288.21 155.08 288.95 154.7 289.66C154.44 290.03 153.92 290.1 153.56 289.83C153.21 289.58 153.12 289.09 153.36 288.73C153.46 288.55 153.8 287.69 154.12 286.86C156.01 281.98 160.45 270.57 166.41 268.81C166.48 268.79 166.56 268.78 166.64 268.78C167.09 268.78 167.46 269.15 167.46 269.6Z" id="aI3NvASfG"></path><path d="M149.81 267.21C155.61 269.75 156.68 282.04 154.86 289.39C154.75 289.82 154.3 290.09 153.86 289.97C153.43 289.86 153.17 289.43 153.27 288.99C155.12 281.49 153.59 270.66 149.15 268.71C148.74 268.53 148.55 268.04 148.74 267.63C148.87 267.33 149.16 267.14 149.48 267.14C149.6 267.14 149.71 267.17 149.81 267.21Z" id="a1ObR7TeWp"></path><path d="M134.7 25.43C156.23 48.34 163.5 68.9 157.59 90.13C152.38 108.82 137.78 125.13 122.32 142.4C86.12 182.84 48.68 224.67 132.07 301.74C132.51 302.16 132.53 302.85 132.12 303.29C131.71 303.72 131.03 303.75 130.58 303.35C92.63 268.27 76.17 237.04 80.24 207.89C83.85 182.1 102.58 161.18 120.7 140.94C150.69 107.43 179.02 75.78 133.1 26.93C132.69 26.49 132.71 25.8 133.15 25.38C133.35 25.19 133.62 25.09 133.9 25.09C134.2 25.09 134.49 25.21 134.7 25.43Z" id="bhOftziRE"></path><path d="M106.94 53.38C106.94 53.65 106.84 53.92 106.66 54.12C84.69 78.37 81.63 106.53 82.94 125.88C85.37 161.93 103.49 192.67 119.29 205.98C119.75 206.37 119.81 207.06 119.42 207.52C119.03 207.98 118.34 208.04 117.88 207.65C117.88 207.65 117.88 207.65 117.88 207.65C117.88 207.65 117.88 207.65 117.88 207.65C101.74 194.06 83.24 162.71 80.76 126.02C78.84 97.67 87.24 72.3 105.04 52.65C105.25 52.42 105.54 52.29 105.85 52.29C106.45 52.29 106.94 52.78 106.94 53.38Z" id="bnyyDl4gK"></path><path d="M65.07 121.79C65.91 122.9 66.95 125.24 68.74 125.47C69.79 125.65 70.87 125.32 71.65 124.59C74.29 121.7 74.09 117.6 78.28 113.44C78.49 113.23 78.73 113.05 79 112.91C77.65 116.4 75.22 124.97 80.86 132.31C82.6 130.79 84.6 129.59 86.76 128.75C88.07 128.3 90.62 128.03 91.39 126.4C91.88 125.45 91.91 124.33 91.45 123.36C89.52 119.96 85.56 118.88 82.9 113.61C82.76 113.34 82.67 113.06 82.62 112.76C85.52 115.12 92.92 120.08 101.64 116.99C100.74 114.86 100.21 112.59 100.08 110.28C100.06 108.89 100.58 106.38 99.27 105.15C98.52 104.38 97.46 104.01 96.4 104.15C92.57 104.93 90.32 108.37 84.48 109.27C84.19 109.32 83.88 109.32 83.59 109.27C86.73 107.24 93.74 101.74 93.49 92.49C91.18 92.69 88.86 92.49 86.62 91.9C85.3 91.49 83.08 90.22 81.5 91.08C80.54 91.56 79.86 92.45 79.66 93.51C79.22 97.39 81.79 100.59 80.85 106.42C80.8 106.72 80.71 107.01 80.57 107.27C79.61 103.67 76.56 95.3 67.67 92.67C67.15 94.92 66.24 97.07 64.98 99.02C64.19 100.15 62.29 101.87 62.62 103.64C62.78 104.7 63.42 105.62 64.36 106.14C67.92 107.76 71.76 106.3 77.01 109C77.28 109.13 77.52 109.31 77.74 109.52C74 109.32 65.1 109.65 59.86 117.28C61.84 118.47 63.61 120 65.07 121.79Z" id="dGlWncRO5"></path><path d="M133.52 23.22C130.22 21.46 122.01 18 114.05 22.71C115.34 24.63 116.29 26.76 116.87 29C117.16 30.36 117.12 32.92 118.64 33.88C119.52 34.49 120.64 34.65 121.65 34.31C125.26 32.81 126.81 29 132.36 27C132.65 26.89 132.94 26.84 133.24 26.83C130.55 29.42 124.73 36.16 126.75 45.19C128.97 44.56 131.29 44.31 133.6 44.46C134.98 44.6 137.4 45.43 138.79 44.28C139.64 43.63 140.13 42.61 140.13 41.54C139.81 37.64 136.67 35 136.48 29.1C136.47 28.8 136.51 28.49 136.59 28.21C138.22 31.56 142.82 39.19 152.05 40.06C152.13 37.75 152.61 35.47 153.47 33.32C154.03 32.05 155.57 30 154.9 28.33C154.54 27.32 153.73 26.53 152.71 26.21C148.91 25.31 145.42 27.47 139.75 25.83C139.46 25.75 139.18 25.62 138.93 25.45C142.63 24.94 151.31 22.92 154.99 14.41C152.82 13.62 150.79 12.46 149.01 10.98C147.98 10.05 146.5 7.96 144.71 8.08C143.64 8.1 142.64 8.63 142.02 9.5C139.98 12.84 140.97 16.83 137.65 21.71C137.49 21.96 137.28 22.18 137.04 22.37C137.7 18.68 138.44 9.81 131.5 3.69C130.08 5.51 128.35 7.08 126.39 8.31C125.19 9.01 122.74 9.77 122.3 11.51C121.99 12.54 122.19 13.65 122.82 14.51C125.37 17.48 129.47 17.77 133.09 22.44C133.28 22.67 133.42 22.93 133.52 23.22Z" id="aXCtcQwOc"></path><path d="M171.14 79.59C174.33 77.53 181.46 69.83 179.58 59.78C177.47 67.35 173.19 71.05 167.65 72.76C162.09 74.46 160.39 78.32 163.12 79.72C163.31 82.77 166.52 82.59 171.14 79.59Z" id="aLpnvy8s3"></path><path d="M107.43 59.19C110.84 54.86 113.53 50.01 115.38 44.81C110.21 46.73 105.38 49.47 101.1 52.94C96.4 56.68 96.6 59.67 99.84 60.54C100.76 63.77 103.75 63.93 107.43 59.19Z" id="d6f76fI6vF"></path><path d="M145.37 76.96C143.21 73.84 142 69.06 140.85 62.27C144.64 68.65 148.37 69.33 151.97 71.93C156.41 75.15 155.22 77.91 152.22 78.55C151.24 81.45 148.5 81.46 145.37 76.96Z" id="b2FN8iycr0"></path><path d="M167.46 77.4C167.46 77.76 167.22 78.08 166.87 78.18C161.68 79.71 157.3 91 155.65 95.25C155.4 96.01 155.08 96.75 154.7 97.46C154.44 97.82 153.92 97.9 153.56 97.63C153.21 97.37 153.12 96.89 153.36 96.52C153.46 96.34 153.8 95.48 154.12 94.65C156.01 89.78 160.44 78.36 166.41 76.61C166.48 76.59 166.56 76.57 166.64 76.57C167.09 76.58 167.46 76.94 167.46 77.4Z" id="f1apEb5Pdy"></path><path d="M149.81 75C155.61 77.55 156.68 89.84 154.86 97.18C154.75 97.62 154.3 97.88 153.86 97.77C153.43 97.65 153.17 97.22 153.27 96.79C155.12 89.28 153.59 78.45 149.15 76.51C148.74 76.32 148.55 75.84 148.74 75.42C148.87 75.13 149.16 74.94 149.48 74.94C149.6 74.94 149.71 74.96 149.81 75Z" id="c1h7ZZE3Hs"></path><path d="M61 885.25C67.48 888.42 74.81 889.44 81.91 888.17C91.04 897.16 104.5 900.15 116.59 895.88C116.59 895.88 116.59 895.88 116.59 895.89C128.72 891.8 137.47 881.16 139.13 868.46C150.51 862.54 157.52 850.65 157.19 837.83C157.19 837.83 157.19 837.83 157.19 837.83C157.06 825.01 149.63 813.4 138.05 807.9C134.83 789.44 117.26 777.08 98.79 780.3C91.68 781.54 85.15 785.02 80.14 790.23C61.58 787.59 44.39 800.5 41.75 819.06C40.73 826.21 42.02 833.5 45.43 839.87C37.2 856.7 44.17 877.02 61 885.25Z" id="a15ayp6v5N"></path><path d="M79.32 787.87C93.6 773.9 116.49 774.14 130.47 788.41C135.31 793.36 138.64 799.6 140.04 806.39C157.74 815.66 164.57 837.52 155.3 855.22C152.1 861.35 147.2 866.43 141.19 869.86C137.84 889.56 119.16 902.81 99.46 899.46C92.64 898.3 86.3 895.21 81.18 890.56C61.42 893.47 43.05 879.81 40.14 860.05C39.13 853.2 40.11 846.21 42.95 839.91C37.04 828.06 38.1 813.92 45.71 803.09C53.26 792.21 66.17 786.36 79.32 787.87ZM74.09 881.61C68.4 877.52 64.36 871.53 62.69 864.72C56.44 861.17 51.71 855.44 49.39 848.63C48.45 845.86 47.93 842.96 47.86 840.03C47.71 840.31 47.55 840.57 47.42 840.86C39.74 856.62 46.29 875.62 62.05 883.3C66.8 885.61 72.06 886.71 77.34 886.48C76.11 884.95 75.02 883.32 74.09 881.61ZM104.53 814.39C100.67 813.2 96.58 812.94 92.6 813.64C103.93 824.4 110.72 842.64 98.62 864.5C109.26 863.8 118.36 856.6 121.49 846.4C125.65 832.88 118.05 818.54 104.53 814.39ZM103 872.47C105.27 873.81 107.8 874.65 110.42 874.93C116.78 875.6 123.16 873.82 128.26 869.96C132.33 866.86 135.33 862.58 136.85 857.7C138.3 853.01 138.35 847.99 136.99 843.28C136.02 844.61 134.91 845.83 133.67 846.91C131.11 849.17 127.98 850.69 124.62 851.3C124.6 851.31 124.39 851.34 124.36 851.34C119.77 861.42 110.03 868.18 98.98 868.94C100.1 870.36 101.46 871.55 103 872.47ZM100.01 848.31C91.57 850.73 79.8 847.22 71.3 839.73C71.65 852.46 81.33 862.99 93.98 864.39C93.96 863.99 94.05 863.59 94.24 863.24C96.99 858.62 98.94 853.57 100.01 848.31ZM99.34 832.62C93.71 832.89 85.03 837.42 83.89 842.31C89.99 844.83 96.31 845.41 100.61 843.33C100.79 839.71 100.36 836.09 99.34 832.62ZM71.75 833.95C74.1 836.49 76.82 838.64 79.84 840.33C82.07 833.98 90.86 829.17 97.72 828.29C95.33 823.18 91.84 818.67 87.5 815.07C79.38 818.26 73.44 825.38 71.75 833.95ZM72.28 815.34C69.67 815.58 67.14 816.39 64.87 817.7C59.31 820.86 55.18 826.05 53.36 832.19C51.86 837.09 51.95 842.35 53.64 847.2C55.23 851.83 58.13 855.9 61.99 858.92C61.98 857.28 62.17 855.64 62.54 854.04C63.28 850.7 64.92 847.62 67.27 845.14C67.29 845.13 67.42 845.01 67.43 844.99C65.18 834.14 69.09 822.92 77.61 815.83C75.88 815.34 74.07 815.17 72.28 815.34ZM105.2 878.33C103.62 877.83 102.11 877.15 100.69 876.29C97.77 874.58 95.36 872.1 93.74 869.12C93.73 869.09 93.62 868.87 93.61 868.84C82.57 867.66 73.1 860.46 69 850.14C68 851.64 67.29 853.3 66.89 855.05C66.32 857.61 66.3 860.27 66.81 862.84C68.12 869.11 71.79 874.64 77.07 878.27C81.28 881.21 86.31 882.75 91.44 882.66C96.35 882.59 101.13 881.08 105.2 878.33ZM130.44 873.84C124.82 877.98 117.91 879.96 110.95 879.43C105.62 884.29 98.71 887.02 91.5 887.12C88.56 887.16 85.63 886.76 82.81 885.92C83.02 886.15 83.23 886.38 83.45 886.6C96.07 898.78 116.18 898.43 128.37 885.81C132.04 882 134.7 877.35 136.12 872.25C134.28 872.96 132.38 873.49 130.44 873.84ZM140.51 817.79C142.72 824.44 142.47 831.67 139.8 838.16C142.78 844.72 143.25 852.14 141.11 859.02C140.24 861.82 138.95 864.47 137.28 866.89C137.56 866.75 137.85 866.63 138.12 866.48C153.61 858.24 159.49 839 151.24 823.51C148.76 818.84 145.15 814.87 140.74 811.95C140.84 813.9 140.76 815.85 140.51 817.79ZM127.15 806.77C123.12 803.95 118.36 802.36 113.45 802.17C114.43 803.51 115.25 804.96 115.9 806.48C117.25 809.64 117.72 813.1 117.27 816.5C117.26 816.52 117.23 816.67 117.23 816.68C125.41 824.16 128.82 835.52 126.12 846.26C127.82 845.65 129.38 844.72 130.74 843.54C132.71 841.79 134.29 839.65 135.36 837.24C137.97 831.39 138.25 824.77 136.14 818.72C135.31 816.31 134.11 814.05 132.59 812.01C131.06 809.99 129.23 808.22 127.15 806.77ZM90.28 790.93C97.29 790.89 104.09 793.36 109.45 797.9C116.62 797.09 123.83 798.95 129.73 803.12C132.11 804.8 134.23 806.83 135.99 809.16C135.95 808.86 135.92 808.56 135.87 808.26C132.83 790.99 116.37 779.45 99.09 782.48C93.87 783.4 88.96 785.62 84.81 788.92C86.69 789.43 88.52 790.1 90.28 790.93ZM75.67 800.28C71.76 803.24 68.78 807.27 67.1 811.87C68.66 811.36 70.26 811.04 71.9 810.9C75.31 810.56 78.76 811.16 81.85 812.64C81.87 812.65 82.04 812.74 82.06 812.75C91.67 807.21 103.57 807.46 112.93 813.41C112.87 811.63 112.48 809.87 111.79 808.22C110.73 805.8 109.17 803.63 107.22 801.85C102.45 797.56 96.22 795.24 89.81 795.38C87.28 795.41 84.78 795.86 82.39 796.69C79.98 797.53 77.71 798.74 75.67 800.28ZM49.27 830.37C51.41 823.71 55.85 818.02 61.81 814.34C63.24 807.3 67.22 801.02 72.98 796.72C75.32 794.95 77.92 793.55 80.69 792.57C80.39 792.52 80.1 792.45 79.81 792.41C62.44 789.97 46.38 802.07 43.94 819.44C43.2 824.68 43.79 830.02 45.64 834.98C46.71 833.34 47.93 831.8 49.27 830.37Z" id="b3N3nyTtrG"></path><path d="M101.29 599.87C104.48 603.65 108.8 606.31 113.61 607.48C116.87 615.64 124.49 621.24 133.26 621.9C133.26 621.9 133.26 621.91 133.26 621.91C142.01 622.69 150.45 618.42 155 610.91C163.78 610.33 171.47 604.8 174.81 596.66C174.81 596.66 174.81 596.66 174.81 596.66C178.26 588.57 176.81 579.22 171.06 572.57C174.13 560.08 166.51 547.46 154.02 544.39C149.21 543.2 144.15 543.58 139.57 545.47C128.63 538.68 114.27 542.04 107.48 552.97C104.87 557.18 103.66 562.12 104.05 567.06C94.22 575.36 92.99 590.05 101.29 599.87Z" id="aqlJiifn4"></path><path d="M139.7 543.76C152.53 538.93 166.84 545.41 171.68 558.24C173.35 562.68 173.71 567.52 172.72 572.17C181.28 582.88 179.53 598.51 168.81 607.06C165.11 610.02 160.63 611.86 155.91 612.36C148.36 623.8 132.96 626.96 121.51 619.42C117.55 616.8 114.42 613.11 112.5 608.78C99.28 605.14 91.51 591.49 95.14 578.27C96.4 573.69 98.95 569.57 102.48 566.4C102.04 557.32 106.61 548.73 114.38 544.03C122.13 539.29 131.86 539.18 139.7 543.76ZM110.51 601.19C108.07 597.05 107.18 592.17 108.02 587.44C105.07 583.48 103.68 578.58 104.11 573.66C104.28 571.66 104.76 569.69 105.52 567.83C105.35 567.97 105.18 568.09 105.02 568.23C95.84 576 94.71 589.75 102.48 598.93C104.83 601.7 107.83 603.84 111.21 605.15C110.86 603.85 110.63 602.53 110.51 601.19ZM148.21 567.38C146.11 565.57 143.61 564.28 140.92 563.62C145.06 573.51 144.29 586.84 130.65 597.22C137.52 599.72 145.23 597.72 150.01 592.18C156.36 584.83 155.55 573.73 148.21 567.38ZM131.2 603.45C132.25 604.91 133.61 606.14 135.18 607.04C138.99 609.22 143.49 609.86 147.76 608.84C151.17 608.03 154.24 606.16 156.54 603.52C158.75 600.97 160.16 597.84 160.61 594.5C159.64 595.07 158.6 595.53 157.52 595.86C155.29 596.57 152.91 596.66 150.63 596.12C150.61 596.12 150.47 596.08 150.45 596.07C144.79 601.14 136.8 602.69 129.65 600.12C129.96 601.31 130.48 602.44 131.2 603.45ZM136 587.44C130.03 586.63 123.6 581.18 120.33 574.12C117.03 582.21 120.21 591.5 127.77 595.88C127.86 595.62 128.03 595.39 128.25 595.22C131.25 593.08 133.87 590.45 136 587.44ZM139.91 577.4C136.3 576.02 129.6 576.46 127.53 579.22C130.66 582.48 134.47 584.59 137.75 584.48C138.86 582.26 139.59 579.87 139.91 577.4ZM122.21 570.61C122.99 572.85 124.1 574.96 125.53 576.85C128.69 573.48 135.54 572.89 140.09 574.23C140 570.36 139.06 566.56 137.33 563.1C131.34 562.87 125.64 565.7 122.21 570.61ZM127.69 559.07C125.98 558.5 124.17 558.31 122.38 558.5C118.01 558.95 113.99 561.07 111.15 564.42C108.85 567.09 107.46 570.42 107.18 573.93C106.9 577.28 107.59 580.64 109.18 583.6C109.63 582.57 110.2 581.59 110.88 580.69C112.26 578.79 114.14 577.31 116.31 576.41C116.32 576.4 116.44 576.36 116.45 576.36C118.03 568.91 123.59 562.95 130.9 560.85C129.95 560.06 128.86 559.46 127.69 559.07ZM130.96 607.73C130.11 606.98 129.35 606.14 128.69 605.21C127.33 603.32 126.5 601.1 126.31 598.78C126.31 598.76 126.3 598.59 126.3 598.57C119.7 594.78 115.73 587.64 116.01 580.03C114.97 580.69 114.06 581.53 113.33 582.52C112.27 583.98 111.51 585.64 111.12 587.4C110.21 591.7 110.99 596.18 113.31 599.92C115.14 602.93 117.87 605.29 121.12 606.65C124.23 607.96 127.64 608.34 130.96 607.73ZM148.06 611.89C143.38 612.93 138.49 612.27 134.27 610.01C129.58 611.59 124.48 611.4 119.93 609.47C118.07 608.68 116.34 607.62 114.8 606.31C114.87 606.51 114.94 606.72 115.02 606.92C119.58 618.06 132.31 623.39 143.45 618.83C146.8 617.46 149.76 615.27 152.06 612.46C150.71 612.39 149.37 612.2 148.06 611.89ZM169.87 579.46C169.42 584.25 167.26 588.72 163.8 592.06C163.85 597 162.09 601.8 158.85 605.53C157.53 607.05 155.98 608.35 154.27 609.41C154.49 609.4 154.7 609.4 154.91 609.39C166.92 608.49 175.93 598.03 175.03 586.02C174.76 582.4 173.59 578.91 171.63 575.86C171.15 577.11 170.56 578.31 169.87 579.46ZM164.52 568.85C162.77 565.97 160.22 563.65 157.19 562.17C157.43 563.29 157.55 564.42 157.54 565.56C157.51 567.92 156.85 570.22 155.62 572.23C155.62 572.24 155.56 572.32 155.55 572.33C158.62 579.29 157.63 587.37 152.96 593.37C154.2 593.45 155.43 593.3 156.61 592.94C158.34 592.38 159.92 591.47 161.26 590.26C164.51 587.31 166.52 583.22 166.86 578.84C167.01 577.1 166.88 575.35 166.48 573.64C166.09 571.95 165.42 570.33 164.52 568.85ZM145.74 548.71C150.16 550.62 153.74 554.05 155.85 558.38C160.58 559.86 164.6 563.02 167.15 567.27C168.18 568.98 168.95 570.85 169.41 572.8C169.47 572.59 169.54 572.4 169.59 572.19C172.45 560.51 165.3 548.71 153.61 545.84C150.07 544.98 146.38 545.01 142.86 545.94C143.9 546.78 144.86 547.7 145.74 548.71ZM133.98 550.55C130.7 551.33 127.72 553.03 125.39 555.46C126.51 555.57 127.61 555.81 128.67 556.17C130.91 556.9 132.91 558.23 134.44 560.02C134.45 560.03 134.53 560.14 134.54 560.15C142.11 559.32 149.51 562.77 153.76 569.09C154.21 567.95 154.45 566.74 154.47 565.52C154.48 563.7 154.1 561.91 153.36 560.25C151.55 556.24 148.28 553.06 144.21 551.37C142.61 550.7 140.92 550.29 139.19 550.15C137.44 550.01 135.68 550.14 133.98 550.55ZM109.08 562.15C112.27 558.56 116.63 556.22 121.38 555.55C124.23 551.52 128.46 548.68 133.27 547.57C135.23 547.1 137.25 546.94 139.26 547.09C139.09 546.98 138.93 546.86 138.75 546.75C128.52 540.41 115.09 543.58 108.76 553.81C106.84 556.9 105.73 560.42 105.53 564.05C106.65 563.31 107.84 562.68 109.08 562.15Z" id="f2id0SGbnz"></path><path d="M35.25 238.62C41.54 239.68 48.01 238.71 53.71 235.85C63.71 241.18 75.88 240.34 85.06 233.69C85.06 233.69 85.06 233.69 85.06 233.69C94.32 227.18 99.07 215.96 97.29 204.78C105.46 196.9 108.41 185.06 104.92 174.27C104.92 174.27 104.92 174.27 104.92 174.27C101.59 163.44 92.37 155.45 81.18 153.69C73.82 138.84 55.81 132.78 40.96 140.14C35.24 142.97 30.57 147.56 27.64 153.24C11.24 155.66 -0.1 170.92 2.32 187.32C3.25 193.64 6.17 199.5 10.66 204.04C7.9 220.38 18.91 235.86 35.25 238.62Z" id="ayxXGOHHY"></path><path d="M26.35 151.44C34.95 136.01 54.43 130.48 69.86 139.07C75.21 142.06 79.59 146.51 82.48 151.91C99.82 155.33 111.1 172.16 107.68 189.5C106.5 195.49 103.62 201.03 99.39 205.44C101.49 222.99 88.97 238.92 71.43 241.02C65.35 241.75 59.2 240.72 53.7 238.06C37.67 245.48 18.66 238.51 11.23 222.48C8.66 216.93 7.74 210.76 8.57 204.7C0.58 196.13 -2.07 183.88 1.67 172.78C5.34 161.67 14.82 153.47 26.35 151.44ZM45.43 232.24C39.58 230.2 34.65 226.14 31.53 220.78C25.34 219.34 19.89 215.68 16.22 210.48C14.72 208.37 13.56 206.04 12.76 203.57C12.7 203.85 12.64 204.11 12.59 204.38C10.03 219.67 20.36 234.14 35.65 236.7C40.26 237.47 44.99 237.08 49.41 235.56C47.99 234.57 46.66 233.47 45.43 232.24ZM54.38 167.61C50.81 167.57 47.28 168.38 44.08 169.96C56.39 176.25 66.72 190.01 61.94 211.58C70.79 208.32 76.7 199.93 76.8 190.5C76.93 177.99 66.89 167.74 54.38 167.61ZM67.66 217.25C69.92 217.81 72.28 217.88 74.57 217.47C80.13 216.44 85.09 213.33 88.44 208.77C91.12 205.13 92.59 200.74 92.65 196.22C92.71 191.88 91.49 187.62 89.15 183.96C88.67 185.33 88.03 186.65 87.25 187.88C85.64 190.43 83.37 192.5 80.68 193.87C80.66 193.88 80.49 193.96 80.47 193.97C79.11 203.66 72.54 211.84 63.37 215.26C64.67 216.18 66.12 216.85 67.66 217.25ZM59.06 197.5C52.51 201.68 41.65 201.65 32.56 197.44C36.05 208.14 46.9 214.64 57.98 212.65C57.87 212.32 57.84 211.96 57.91 211.61C59.09 207 59.48 202.24 59.06 197.5ZM54.56 184.37C49.85 186.01 43.62 192.03 43.89 196.47C49.69 197.07 55.19 195.97 58.32 193.13C57.57 190.02 56.3 187.06 54.56 184.37ZM31.49 192.42C34.12 193.98 36.97 195.12 39.95 195.8C40.25 189.85 46.49 183.57 52.09 181.1C48.79 177.37 44.7 174.42 40.12 172.45C34.02 177.2 30.77 184.73 31.49 192.42ZM27.28 176.51C25.12 177.37 23.18 178.68 21.58 180.37C17.66 184.44 15.46 189.88 15.45 195.54C15.41 200.08 16.81 204.51 19.46 208.2C21.97 211.72 25.45 214.45 29.48 216.05C29.07 214.65 28.81 213.22 28.73 211.77C28.52 208.75 29.13 205.73 30.5 203.04C30.51 203.02 30.59 202.88 30.6 202.87C25.97 194.23 26.47 183.74 31.91 175.58C30.33 175.6 28.75 175.91 27.28 176.51ZM70.99 221.66C69.53 221.63 68.08 221.43 66.66 221.06C63.75 220.34 61.09 218.84 58.97 216.72C58.95 216.7 58.8 216.54 58.78 216.52C49.13 218.29 39.29 214.56 33.23 206.84C32.75 208.36 32.56 209.95 32.67 211.53C32.83 213.85 33.47 216.1 34.55 218.16C37.24 223.15 41.74 226.91 47.13 228.67C51.43 230.11 56.08 230.15 60.41 228.78C64.56 227.49 68.24 225.02 70.99 221.66ZM91.27 211.52C87.54 216.44 82.18 219.85 76.15 221.15C72.85 226.61 67.67 230.66 61.58 232.55C59.1 233.33 56.51 233.72 53.91 233.72C54.15 233.85 54.38 234 54.63 234.13C68.39 241.29 85.35 235.95 92.52 222.19C94.67 218.04 95.76 213.42 95.69 208.75C94.3 209.81 92.83 210.73 91.27 211.52ZM85.75 161.46C89.29 166.55 90.89 172.74 90.26 178.91C94.43 183.73 96.68 189.91 96.6 196.28C96.56 198.87 96.13 201.44 95.32 203.91C95.53 203.72 95.74 203.55 95.94 203.35C107 192.47 107.16 174.69 96.28 163.62C93 160.29 88.95 157.82 84.48 156.45C85.05 158.08 85.47 159.76 85.75 161.46ZM71.65 155.47C67.53 154.09 63.09 153.93 58.88 155.01C60.05 155.9 61.11 156.92 62.04 158.05C63.97 160.39 65.24 163.21 65.71 166.2C65.71 166.22 65.72 166.35 65.73 166.37C74.54 170.65 80.28 179.43 80.69 189.22C81.97 188.27 83.07 187.1 83.92 185.75C85.15 183.78 85.95 181.56 86.26 179.25C87.01 173.64 85.58 167.95 82.27 163.35C80.97 161.52 79.38 159.9 77.58 158.55C75.78 157.22 73.78 156.18 71.65 155.47ZM36.41 151.29C42.35 149.49 48.74 149.88 54.41 152.39C60.29 149.91 66.88 149.67 72.92 151.73C75.37 152.55 77.67 153.75 79.75 155.28C79.64 155.04 79.54 154.79 79.42 154.55C72.51 140.66 55.65 135.01 41.77 141.92C37.57 144.01 33.96 147.12 31.27 150.96C32.99 150.92 34.71 151.03 36.41 151.29ZM26.37 162.89C23.8 166.38 22.28 170.54 22.01 174.86C23.2 174.04 24.48 173.36 25.83 172.84C28.64 171.69 31.72 171.34 34.71 171.82C34.73 171.82 34.9 171.86 34.92 171.86C41.68 164.75 51.83 161.98 61.26 164.67C60.76 163.17 59.99 161.78 58.99 160.56C57.49 158.77 55.62 157.32 53.52 156.3C48.39 153.86 42.53 153.46 37.13 155.18C34.99 155.85 32.98 156.85 31.17 158.16C29.33 159.47 27.71 161.07 26.37 162.89ZM11.53 195.03C11.67 188.84 14.02 182.9 18.14 178.29C17.59 171.95 19.39 165.64 23.19 160.54C24.74 158.45 26.59 156.61 28.69 155.09C28.43 155.12 28.17 155.14 27.9 155.17C12.56 157.46 1.98 171.75 4.27 187.09C4.96 191.72 6.8 196.11 9.62 199.85C10.11 198.19 10.75 196.57 11.53 195.03Z" id="aeVkntchY"></path></defs><g><g><use xlink:href="#bfmjVIQ0r" opacity="1" fill="#000000" fill-opacity="0"></use><g><use xlink:href="#bfmjVIQ0r" opacity="1" fill-opacity="0" stroke="#000000" stroke-width="1" stroke-opacity="0"></use></g></g><g><use xlink:href="#a1sbkbzzkR" opacity="1" fill="#fff2e6" fill-opacity="1"></use><g><use xlink:href="#a1sbkbzzkR" opacity="1" fill-opacity="0" stroke="#000000" stroke-width="1" stroke-opacity="0"></use></g></g><g><use xlink:href="#bvlobvhp1" opacity="1" fill="#ffffff" fill-opacity="1"></use><g><use xlink:href="#bvlobvhp1" opacity="1" fill-opacity="0" stroke="#000000" stroke-width="1" stroke-opacity="0"></use></g></g><g><use xlink:href="#b2dllXMVdT" opacity="1" fill="#fff2e6" fill-opacity="1"></use><g><use xlink:href="#b2dllXMVdT" opacity="1" fill-opacity="0" stroke="#000000" stroke-width="1" stroke-opacity="0"></use></g></g><g><use xlink:href="#buVwtYNnY" opacity="1" fill="#ffffff" fill-opacity="1"></use><g><use xlink:href="#buVwtYNnY" opacity="1" fill-opacity="0" stroke="#000000" stroke-width="1" stroke-opacity="0"></use></g></g><g><use xlink:href="#eKB9j74OB" opacity="1" fill="#fff2e6" fill-opacity="1"></use><g><use xlink:href="#eKB9j74OB" opacity="1" fill-opacity="0" stroke="#000000" stroke-width="1" stroke-opacity="0"></use></g></g><g><use xlink:href="#a5Rbjwjxa" opacity="1" fill="#ffffff" fill-opacity="1"></use><g><use xlink:href="#a5Rbjwjxa" opacity="1" fill-opacity="0" stroke="#000000" stroke-width="1" stroke-opacity="0"></use></g></g><g><use xlink:href="#axPYM0QJf" opacity="1" fill="#fff2e6" fill-opacity="1"></use><g><use xlink:href="#axPYM0QJf" opacity="1" fill-opacity="0" stroke="#000000" stroke-width="1" stroke-opacity="0"></use></g></g><g><use xlink:href="#b1k03YeEfc" opacity="1" fill="#ffffff" fill-opacity="1"></use><g><use xlink:href="#b1k03YeEfc" opacity="1" fill-opacity="0" stroke="#000000" stroke-width="1" stroke-opacity="0"></use></g></g><g><use xlink:href="#bPozD73EY" opacity="1" fill="#f4cba2" fill-opacity="1"></use><g><use xlink:href="#bPozD73EY" opacity="1" fill-opacity="0" stroke="#000000" stroke-width="1" stroke-opacity="0"></use></g></g><g><use xlink:href="#a5bWETvvLt" opacity="1" fill="#f4cba2" fill-opacity="1"></use><g><use xlink:href="#a5bWETvvLt" opacity="1" fill-opacity="0" stroke="#000000" stroke-width="1" stroke-opacity="0"></use></g></g><g><use xlink:href="#an5DcpMEH" opacity="1" fill="#a4e6ff" fill-opacity="1"></use><g><use xlink:href="#an5DcpMEH" opacity="1" fill-opacity="0" stroke="#000000" stroke-width="1" stroke-opacity="0"></use></g></g><g><use xlink:href="#a3tsD8J7Lw" opacity="1" fill="#f4cba2" fill-opacity="1"></use><g><use xlink:href="#a3tsD8J7Lw" opacity="1" fill-opacity="0" stroke="#000000" stroke-width="1" stroke-opacity="0"></use></g></g><g><use xlink:href="#dLo1rpuYM" opacity="1" fill="#f4cba2" fill-opacity="1"></use><g><use xlink:href="#dLo1rpuYM" opacity="1" fill-opacity="0" stroke="#000000" stroke-width="1" stroke-opacity="0"></use></g></g><g><use xlink:href="#a2V76VBsAu" opacity="1" fill="#f4cba2" fill-opacity="1"></use><g><use xlink:href="#a2V76VBsAu" opacity="1" fill-opacity="0" stroke="#000000" stroke-width="1" stroke-opacity="0"></use></g></g><g><use xlink:href="#a78gqR5Zde" opacity="1" fill="#f4cba2" fill-opacity="1"></use><g><use xlink:href="#a78gqR5Zde" opacity="1" fill-opacity="0" stroke="#000000" stroke-width="1" stroke-opacity="0"></use></g></g><g><use xlink:href="#fBZsQz29" opacity="1" fill="#f4cba2" fill-opacity="1"></use><g><use xlink:href="#fBZsQz29" opacity="1" fill-opacity="0" stroke="#000000" stroke-width="1" stroke-opacity="0"></use></g></g><g><use xlink:href="#a1v26lMqVs" opacity="1" fill="#f4cba2" fill-opacity="1"></use><g><use xlink:href="#a1v26lMqVs" opacity="1" fill-opacity="0" stroke="#000000" stroke-width="1" stroke-opacity="0"></use></g></g><g><use xlink:href="#bxdNPhozC" opacity="1" fill="#f4cba2" fill-opacity="1"></use><g><use xlink:href="#bxdNPhozC" opacity="1" fill-opacity="0" stroke="#000000" stroke-width="1" stroke-opacity="0"></use></g></g><g><use xlink:href="#eDZyEHWaZ" opacity="1" fill="#f4cba2" fill-opacity="1"></use><g><use xlink:href="#eDZyEHWaZ" opacity="1" fill-opacity="0" stroke="#000000" stroke-width="1" stroke-opacity="0"></use></g></g><g><use xlink:href="#e16s6RZvIj" opacity="1" fill="#fdebac" fill-opacity="1"></use><g><use xlink:href="#e16s6RZvIj" opacity="1" fill-opacity="0" stroke="#000000" stroke-width="1" stroke-opacity="0"></use></g></g><g><use xlink:href="#b1DS7GFc6K" opacity="1" fill="#c9daf8" fill-opacity="1"></use><g><use xlink:href="#b1DS7GFc6K" opacity="1" fill-opacity="0" stroke="#000000" stroke-width="1" stroke-opacity="0"></use></g></g><g><use xlink:href="#d2PS3v0UjD" opacity="1" fill="#f4cba2" fill-opacity="1"></use><g><use xlink:href="#d2PS3v0UjD" opacity="1" fill-opacity="0" stroke="#000000" stroke-width="1" stroke-opacity="0"></use></g></g><g><use xlink:href="#b1wrZ3fugb" opacity="1" fill="#f4cba2" fill-opacity="1"></use><g><use xlink:href="#b1wrZ3fugb" opacity="1" fill-opacity="0" stroke="#000000" stroke-width="1" stroke-opacity="0"></use></g></g><g><use xlink:href="#b3PuXgIF1W" opacity="1" fill="#f4cba2" fill-opacity="1"></use><g><use xlink:href="#b3PuXgIF1W" opacity="1" fill-opacity="0" stroke="#000000" stroke-width="1" stroke-opacity="0"></use></g></g><g><use xlink:href="#dC0hmKNb" opacity="1" fill="#f4cba2" fill-opacity="1"></use><g><use xlink:href="#dC0hmKNb" opacity="1" fill-opacity="0" stroke="#000000" stroke-width="1" stroke-opacity="0"></use></g></g><g><use xlink:href="#aqBVoh3wt" opacity="1" fill="#f4cba2" fill-opacity="1"></use><g><use xlink:href="#aqBVoh3wt" opacity="1" fill-opacity="0" stroke="#000000" stroke-width="1" stroke-opacity="0"></use></g></g><g><use xlink:href="#bWne0IpWu" opacity="1" fill="#f4cba2" fill-opacity="1"></use><g><use xlink:href="#bWne0IpWu" opacity="1" fill-opacity="0" stroke="#000000" stroke-width="1" stroke-opacity="0"></use></g></g><g><use xlink:href="#al5AgkKXx" opacity="1" fill="#f4cba2" fill-opacity="1"></use><g><use xlink:href="#al5AgkKXx" opacity="1" fill-opacity="0" stroke="#000000" stroke-width="1" stroke-opacity="0"></use></g></g><g><use xlink:href="#b8ZtVmYWM" opacity="1" fill="#fbdbeb" fill-opacity="1"></use><g><use xlink:href="#b8ZtVmYWM" opacity="1" fill-opacity="0" stroke="#000000" stroke-width="1" stroke-opacity="0"></use></g></g><g><use xlink:href="#g3Z85MIvBZ" opacity="1" fill="#b5eba2" fill-opacity="1"></use><g><use xlink:href="#g3Z85MIvBZ" opacity="1" fill-opacity="0" stroke="#000000" stroke-width="1" stroke-opacity="0"></use></g></g><g><use xlink:href="#aVG6rEzYn" opacity="1" fill="#f4cba2" fill-opacity="1"></use><g><use xlink:href="#aVG6rEzYn" opacity="1" fill-opacity="0" stroke="#000000" stroke-width="1" stroke-opacity="0"></use></g></g><g><use xlink:href="#aiXIVq4rp" opacity="1" fill="#f4cba2" fill-opacity="1"></use><g><use xlink:href="#aiXIVq4rp" opacity="1" fill-opacity="0" stroke="#000000" stroke-width="1" stroke-opacity="0"></use></g></g><g><use xlink:href="#b4qYtnLFpu" opacity="1" fill="#f4cba2" fill-opacity="1"></use><g><use xlink:href="#b4qYtnLFpu" opacity="1" fill-opacity="0" stroke="#000000" stroke-width="1" stroke-opacity="0"></use></g></g><g><use xlink:href="#aI3NvASfG" opacity="1" fill="#f4cba2" fill-opacity="1"></use><g><use xlink:href="#aI3NvASfG" opacity="1" fill-opacity="0" stroke="#000000" stroke-width="1" stroke-opacity="0"></use></g></g><g><use xlink:href="#a1ObR7TeWp" opacity="1" fill="#f4cba2" fill-opacity="1"></use><g><use xlink:href="#a1ObR7TeWp" opacity="1" fill-opacity="0" stroke="#000000" stroke-width="1" stroke-opacity="0"></use></g></g><g><use xlink:href="#bhOftziRE" opacity="1" fill="#f4cba2" fill-opacity="1"></use><g><use xlink:href="#bhOftziRE" opacity="1" fill-opacity="0" stroke="#000000" stroke-width="1" stroke-opacity="0"></use></g></g><g><use xlink:href="#bnyyDl4gK" opacity="1" fill="#f4cba2" fill-opacity="1"></use><g><use xlink:href="#bnyyDl4gK" opacity="1" fill-opacity="0" stroke="#000000" stroke-width="1" stroke-opacity="0"></use></g></g><g><use xlink:href="#dGlWncRO5" opacity="1" fill="#f8b5bd" fill-opacity="1"></use><g><use xlink:href="#dGlWncRO5" opacity="1" fill-opacity="0" stroke="#000000" stroke-width="1" stroke-opacity="0"></use></g></g><g><use xlink:href="#aXCtcQwOc" opacity="1" fill="#b9aaed" fill-opacity="1"></use><g><use xlink:href="#aXCtcQwOc" opacity="1" fill-opacity="0" stroke="#000000" stroke-width="1" stroke-opacity="0"></use></g></g><g><use xlink:href="#aLpnvy8s3" opacity="1" fill="#f4cba2" fill-opacity="1"></use><g><use xlink:href="#aLpnvy8s3" opacity="1" fill-opacity="0" stroke="#000000" stroke-width="1" stroke-opacity="0"></use></g></g><g><use xlink:href="#d6f76fI6vF" opacity="1" fill="#f4cba2" fill-opacity="1"></use><g><use xlink:href="#d6f76fI6vF" opacity="1" fill-opacity="0" stroke="#000000" stroke-width="1" stroke-opacity="0"></use></g></g><g><use xlink:href="#b2FN8iycr0" opacity="1" fill="#f4cba2" fill-opacity="1"></use><g><use xlink:href="#b2FN8iycr0" opacity="1" fill-opacity="0" stroke="#000000" stroke-width="1" stroke-opacity="0"></use></g></g><g><use xlink:href="#f1apEb5Pdy" opacity="1" fill="#f4cba2" fill-opacity="1"></use><g><use xlink:href="#f1apEb5Pdy" opacity="1" fill-opacity="0" stroke="#000000" stroke-width="1" stroke-opacity="0"></use></g></g><g><use xlink:href="#c1h7ZZE3Hs" opacity="1" fill="#f4cba2" fill-opacity="1"></use><g><use xlink:href="#c1h7ZZE3Hs" opacity="1" fill-opacity="0" stroke="#000000" stroke-width="1" stroke-opacity="0"></use></g></g><g><use xlink:href="#a15ayp6v5N" opacity="1" fill="#fee1c1" fill-opacity="1"></use><g><use xlink:href="#a15ayp6v5N" opacity="1" fill-opacity="0" stroke="#000000" stroke-width="1" stroke-opacity="0"></use></g></g><g><use xlink:href="#b3N3nyTtrG" opacity="1" fill="#ffffff" fill-opacity="1"></use><g><use xlink:href="#b3N3nyTtrG" opacity="1" fill-opacity="0" stroke="#000000" stroke-width="1" stroke-opacity="0"></use></g></g><g><use xlink:href="#aqlJiifn4" opacity="1" fill="#fff2e6" fill-opacity="1"></use><g><use xlink:href="#aqlJiifn4" opacity="1" fill-opacity="0" stroke="#000000" stroke-width="1" stroke-opacity="0"></use></g></g><g><use xlink:href="#f2id0SGbnz" opacity="1" fill="#ffffff" fill-opacity="1"></use><g><use xlink:href="#f2id0SGbnz" opacity="1" fill-opacity="0" stroke="#000000" stroke-width="1" stroke-opacity="0"></use></g></g><g><use xlink:href="#ayxXGOHHY" opacity="1" fill="#fee1c1" fill-opacity="1"></use><g><use xlink:href="#ayxXGOHHY" opacity="1" fill-opacity="0" stroke="#000000" stroke-width="1" stroke-opacity="0"></use></g></g><g><use xlink:href="#aeVkntchY" opacity="1" fill="#ffffff" fill-opacity="1"></use><g><use xlink:href="#aeVkntchY" opacity="1" fill-opacity="0" stroke="#000000" stroke-width="1" stroke-opacity="0"></use></g></g></g></svg>